<svg xmlns="http://www.w3.org/2000/svg" viewBox="0 0 1348.32 226.64"><title>Asset 2</title><path d="M119.76,208.49a.82.82,0,0,1-.15-.65,105.4,105.4,0,0,1,33.18-63.08,95.06,95.06,0,0,1,129,0A105.45,105.45,0,0,1,315,207.84a.86.86,0,0,1-.15.65Z" style="fill:#fff"/><path d="M217.28,134.54a81,81,0,0,1,54.41,21.32,89.58,89.58,0,0,1,24.48,37.63H138.39a89.49,89.49,0,0,1,24.48-37.63,81,81,0,0,1,54.41-21.32m0-30c-57.06,0-104.31,43.91-112.52,101.17-1.34,9.38,5.73,17.78,14.8,17.78H315c9.07,0,16.14-8.4,14.79-17.78-8.21-57.26-55.45-101.17-112.51-101.17Z" style="fill:#3b7bdc"/><line x1="217.75" y1="15" x2="217.74" y2="65" style="fill:none;stroke:#3b7bdc;stroke-linecap:round;stroke-miterlimit:10;stroke-width:30px"/><line x1="355.19" y1="79.64" x2="325.85" y2="108.99" style="fill:none;stroke:#3b7bdc;stroke-linecap:round;stroke-miterlimit:10;stroke-width:30px"/><line x1="15" y1="206.94" x2="67.23" y2="206.94" style="fill:none;stroke:#3b7bdc;stroke-linecap:round;stroke-miterlimit:10;stroke-width:30px"/><line x1="417.6" y1="206.94" x2="365.37" y2="206.94" style="fill:none;stroke:#3b7bdc;stroke-linecap:round;stroke-miterlimit:10;stroke-width:30px"/><line x1="83.29" y1="81.64" x2="112.63" y2="110.99" style="fill:none;stroke:#3b7bdc;stroke-linecap:round;stroke-miterlimit:10;stroke-width:30px"/><path d="M522.46,187.36a87.17,87.17,0,0,1-26-3.62A62.41,62.41,0,0,1,474.3,171a16.33,16.33,0,0,1-4.14-5.17,12.9,12.9,0,0,1-1.44-5.79,11.8,11.8,0,0,1,3.41-8.37,11.29,11.29,0,0,1,8.58-3.62,11,11,0,0,1,7,2.48,65.78,65.78,0,0,0,15.6,9.72q7.76,3.3,19.12,3.3a40.24,40.24,0,0,0,14.06-2.37,27.61,27.61,0,0,0,10.34-6.41,12.86,12.86,0,0,0,3.93-9.2,15.58,15.58,0,0,0-3.73-10.54q-3.72-4.35-11.36-7.34a87.44,87.44,0,0,0-19.44-4.65A86.84,86.84,0,0,1,496.62,118a45.61,45.61,0,0,1-14.16-8.68,34.33,34.33,0,0,1-8.58-12.4,42.31,42.31,0,0,1-2.89-16q0-13.42,6.93-22.94a43.36,43.36,0,0,1,18.7-14.47,66.46,66.46,0,0,1,26-5,74.58,74.58,0,0,1,24.91,4,58,58,0,0,1,18.71,10.23q6,4.76,6,11A11.82,11.82,0,0,1,568.77,72a11,11,0,0,1-8.27,3.72,9.05,9.05,0,0,1-5.58-1.86A37.35,37.35,0,0,0,546,68.39a80,80,0,0,0-11.78-4.34,42.75,42.75,0,0,0-11.58-1.76,43.31,43.31,0,0,0-15,2.27,20.56,20.56,0,0,0-9.2,6.21,14.28,14.28,0,0,0-3.1,9.09A14.72,14.72,0,0,0,499,90.09a24.47,24.47,0,0,0,10.44,6.41,119.82,119.82,0,0,0,16.33,4.24,165.64,165.64,0,0,1,21.81,5.38,51.12,51.12,0,0,1,15.61,7.95,30.22,30.22,0,0,1,9.3,12.2q3.1,7.33,3.1,17.88,0,13.44-7.44,23.16a47.55,47.55,0,0,1-19.53,14.88A66,66,0,0,1,522.46,187.36Z" style="fill:#999"/><path d="M654.56,72.63A47.13,47.13,0,0,1,680.5,80a52.17,52.17,0,0,1,18.19,20.16q6.72,12.82,6.72,29.77t-6.72,29.87a52.51,52.51,0,0,1-18,20.26,45.41,45.41,0,0,1-25.33,7.34,44.18,44.18,0,0,1-15.5-2.69,49.31,49.31,0,0,1-12.71-6.82,39.18,39.18,0,0,1-8.48-8.37c-2-2.83-3-5.2-3-7.14l6.41-2.68V214a12.4,12.4,0,0,1-3.51,9,11.89,11.89,0,0,1-8.89,3.62,12,12,0,0,1-8.89-3.52A12.26,12.26,0,0,1,597.3,214V87.3a12.36,12.36,0,0,1,3.51-9,12.73,12.73,0,0,1,17.78,0,12.4,12.4,0,0,1,3.51,9V97.43l-3.51-1.86q0-2.68,2.89-6.51a41.65,41.65,0,0,1,7.86-7.65,44.64,44.64,0,0,1,11.47-6.3A38.14,38.14,0,0,1,654.56,72.63Zm-3.1,22.74a28,28,0,0,0-15.92,4.54,31,31,0,0,0-10.65,12.3,39.44,39.44,0,0,0-3.82,17.68,40.22,40.22,0,0,0,3.82,17.67,30.53,30.53,0,0,0,10.65,12.51,28,28,0,0,0,15.92,4.55,27.54,27.54,0,0,0,15.81-4.55,30.82,30.82,0,0,0,10.54-12.51,40.23,40.23,0,0,0,3.83-17.67,39.44,39.44,0,0,0-3.83-17.68,31.27,31.27,0,0,0-10.54-12.3A27.54,27.54,0,0,0,651.46,95.37Z" style="fill:#999"/><path d="M738.49,185.29a11.83,11.83,0,0,1-8.89-3.62,12.35,12.35,0,0,1-3.52-9V87.3a12.37,12.37,0,0,1,3.52-9,12.73,12.73,0,0,1,17.78,0,12.4,12.4,0,0,1,3.51,9v19.44l-1.45-13.86a32.42,32.42,0,0,1,5.89-8.78,35.16,35.16,0,0,1,8.17-6.41,36.86,36.86,0,0,1,9.72-3.82,43.94,43.94,0,0,1,10.33-1.24A15.8,15.8,0,0,1,794,76.14a10.49,10.49,0,0,1,4.24,8.27q0,6.82-3.52,9.82a11.53,11.53,0,0,1-7.64,3,17.25,17.25,0,0,1-7.14-1.45,17.69,17.69,0,0,0-7.33-1.45,18,18,0,0,0-7.55,1.76,20.81,20.81,0,0,0-7,5.48,28.82,28.82,0,0,0-5.17,9.2,38.29,38.29,0,0,0-2,12.92v49a12.39,12.39,0,0,1-3.51,9A11.86,11.86,0,0,1,738.49,185.29Z" style="fill:#999"/><path d="M826.55,61.26q-7,0-9.92-2.28c-1.94-1.51-2.9-4.2-2.9-8.06V47c0-4,1.07-6.72,3.21-8.16s5.4-2.17,9.81-2.17q7.25,0,10.13,2.27t2.9,8.06v3.93q0,6-3.1,8.17T826.55,61.26Zm12.61,111.42a12.35,12.35,0,0,1-3.52,9,12.71,12.71,0,0,1-17.77,0,12.35,12.35,0,0,1-3.52-9V87.3a12.37,12.37,0,0,1,3.52-9,12.71,12.71,0,0,1,17.77,0,12.37,12.37,0,0,1,3.52,9Z" style="fill:#999"/><path d="M909.44,72.63a45.42,45.42,0,0,1,15.92,2.68,46.68,46.68,0,0,1,12.51,6.82,41.15,41.15,0,0,1,8.27,8.38q3,4.23,3,7.13l-5.37,2.69V85.24a12.42,12.42,0,0,1,3.51-9,11.89,11.89,0,0,1,8.89-3.61,12,12,0,0,1,8.89,3.51,12.31,12.31,0,0,1,3.52,9.1v92q0,18-7.76,28.84a43.82,43.82,0,0,1-20.36,15.71,74.86,74.86,0,0,1-27.08,4.86,72.72,72.72,0,0,1-10.75-1q-6.61-1-12.61-2.48a68.84,68.84,0,0,1-9.09-2.69q-6.21-2.69-8.58-6.71a10.1,10.1,0,0,1-.93-8.58q1.86-6,6-8.17a10.32,10.32,0,0,1,8.68-.52c1.38.42,3.65,1.24,6.83,2.48a103.88,103.88,0,0,0,10.43,3.42,38.93,38.93,0,0,0,10,1.55q15.51,0,23-6.21t7.44-17.15v-18l2.48,1.86q0,2.68-2.79,6.51a37.56,37.56,0,0,1-7.65,7.55,46.6,46.6,0,0,1-11.47,6.3,38.16,38.16,0,0,1-14.06,2.59A49,49,0,0,1,883.81,180a51.84,51.84,0,0,1-18.61-20.26q-6.81-12.91-6.82-29.66,0-16.95,6.82-29.88A52.47,52.47,0,0,1,883.6,80,47.28,47.28,0,0,1,909.44,72.63Zm3.93,22.74A29.39,29.39,0,0,0,897,99.91a30.94,30.94,0,0,0-11,12.41,39.19,39.19,0,0,0-3.92,17.78,38.74,38.74,0,0,0,3.92,17.57,30.84,30.84,0,0,0,11,12.4,29.39,29.39,0,0,0,16.33,4.55,29.8,29.8,0,0,0,16.54-4.55,30.92,30.92,0,0,0,11-12.4,38.87,38.87,0,0,0,3.92-17.57,39.32,39.32,0,0,0-3.92-17.78,31,31,0,0,0-11-12.41A29.79,29.79,0,0,0,913.37,95.37Z" style="fill:#999"/><path d="M1053.53,72.63q14.88,0,22.64,6.4a32.61,32.61,0,0,1,10.64,17.06,90.17,90.17,0,0,1,2.9,23.67v52.92a12.39,12.39,0,0,1-3.52,9,12.73,12.73,0,0,1-17.78,0,12.39,12.39,0,0,1-3.51-9V119.76a42.57,42.57,0,0,0-1.65-12.3,17,17,0,0,0-6-8.79q-4.34-3.3-12.4-3.3a26,26,0,0,0-13.44,3.3,21.42,21.42,0,0,0-8.37,8.79,26.7,26.7,0,0,0-2.79,12.3v52.92a12.39,12.39,0,0,1-3.52,9,12.73,12.73,0,0,1-17.78,0,12.39,12.39,0,0,1-3.51-9V44.92a12.4,12.4,0,0,1,3.51-9,12.73,12.73,0,0,1,17.78,0,12.41,12.41,0,0,1,3.52,9V96.19l-3.1-.62a46.26,46.26,0,0,1,5.16-7.54,44.81,44.81,0,0,1,8.07-7.55,42.7,42.7,0,0,1,10.54-5.68A35.57,35.57,0,0,1,1053.53,72.63Z" style="fill:#999"/><path d="M1117.82,76.76h49a11.31,11.31,0,0,1,11.58,11.58,10.63,10.63,0,0,1-3.31,8,11.42,11.42,0,0,1-8.27,3.2h-49a11.31,11.31,0,0,1-11.58-11.58,10.63,10.63,0,0,1,3.31-8A11.42,11.42,0,0,1,1117.82,76.76Zm22.12-25.84a11.57,11.57,0,0,1,8.79,3.62,12.61,12.61,0,0,1,3.41,9v92a9,9,0,0,0,1.13,4.76,6.46,6.46,0,0,0,3.1,2.68,10.66,10.66,0,0,0,4.24.83,11,11,0,0,0,4.55-.93,11.49,11.49,0,0,1,4.76-.93,7,7,0,0,1,5.27,2.69,10.86,10.86,0,0,1,2.37,7.44q0,5.79-6.3,9.51a26.22,26.22,0,0,1-13.54,3.72,71.38,71.38,0,0,1-9.61-.72,25.94,25.94,0,0,1-9.93-3.52,21.51,21.51,0,0,1-7.75-8.58q-3.11-5.78-3.1-15.91v-93a12.37,12.37,0,0,1,12.61-12.61Z" style="fill:#999"/><path d="M1228,172.68a12.35,12.35,0,0,1-12.61,12.61,11.59,11.59,0,0,1-8.68-3.62,12.39,12.39,0,0,1-3.51-9V44.92a12.35,12.35,0,0,1,12.61-12.61,11.53,11.53,0,0,1,8.78,3.62,12.57,12.57,0,0,1,3.41,9Z" style="fill:#999"/><path d="M1335.91,74.69a11.88,11.88,0,0,1,8.89,3.62,12.41,12.41,0,0,1,3.52,9v87.86q0,19-7.14,30.29a40.48,40.48,0,0,1-19.12,16.22,69.62,69.62,0,0,1-26.87,5,102.33,102.33,0,0,1-14.06-1,47.4,47.4,0,0,1-12.2-3.1q-6.2-2.69-8.58-6.72a10.17,10.17,0,0,1-.93-8.58q1.86-6,6-8.16a10.32,10.32,0,0,1,8.68-.52c2.2.69,5.1,1.76,8.68,3.21a33.12,33.12,0,0,0,12.41,2.17q9.49,0,15.81-2.59a18.31,18.31,0,0,0,9.51-8.68q3.21-6.1,3.2-16.64V162.14l4.35,5a36.27,36.27,0,0,1-8.79,11.27,35.66,35.66,0,0,1-12.51,6.71,55,55,0,0,1-16.53,2.28,35.53,35.53,0,0,1-19.13-5.07,34.41,34.41,0,0,1-12.71-14,45,45,0,0,1-4.55-20.57V87.3a12.37,12.37,0,0,1,3.52-9,12.71,12.71,0,0,1,17.77,0,12.37,12.37,0,0,1,3.52,9v52.92q0,13.44,5.89,18.92t16.44,5.48a24.55,24.55,0,0,0,12.19-2.79,18.58,18.58,0,0,0,7.65-8.27,30.1,30.1,0,0,0,2.69-13.34V87.3a12.4,12.4,0,0,1,3.51-9A11.88,11.88,0,0,1,1335.91,74.69Z" style="fill:#999"/></svg>